<mxfile host="app.diagrams.net" modified="2022-03-03T03:18:24.942Z" agent="5.0 (Windows NT 10.0; Win64; x64) AppleWebKit/537.36 (KHTML, like Gecko) Chrome/98.0.4758.102 Safari/537.36" etag="zN3IK7NaTYJ3zFrOfbVq" version="16.5.6" type="github">
  <diagram id="SUZrhqFECV3mESoIJm5g" name="第 1 页">
    <mxGraphModel dx="611" dy="572" grid="0" gridSize="10" guides="1" tooltips="1" connect="1" arrows="1" fold="1" page="0" pageScale="1" pageWidth="827" pageHeight="1169" math="0" shadow="0">
      <root>
        <mxCell id="0" />
        <mxCell id="1" parent="0" />
        <mxCell id="EDt9xupc5EbN1uM8uSX0-343" value="" style="shape=cube;whiteSpace=wrap;html=1;boundedLbl=1;backgroundOutline=1;darkOpacity=0.05;darkOpacity2=0.1;size=30;flipV=0;flipH=1;fillColor=#dae8fc;strokeColor=#6c8ebf;" vertex="1" parent="1">
          <mxGeometry x="240" y="180" width="80" height="90" as="geometry" />
        </mxCell>
        <mxCell id="EDt9xupc5EbN1uM8uSX0-344" value="" style="shape=cube;whiteSpace=wrap;html=1;boundedLbl=1;backgroundOutline=1;darkOpacity=0.05;darkOpacity2=0.1;size=30;flipV=0;flipH=1;fillColor=#dae8fc;strokeColor=#6c8ebf;" vertex="1" parent="1">
          <mxGeometry x="520" y="180" width="80" height="90" as="geometry" />
        </mxCell>
        <mxCell id="EDt9xupc5EbN1uM8uSX0-345" value="" style="shape=cube;whiteSpace=wrap;html=1;boundedLbl=1;backgroundOutline=1;darkOpacity=0.05;darkOpacity2=0.1;size=30;flipV=0;flipH=1;fillColor=#dae8fc;strokeColor=#6c8ebf;" vertex="1" parent="1">
          <mxGeometry x="360" y="180" width="40" height="90" as="geometry" />
        </mxCell>
        <mxCell id="EDt9xupc5EbN1uM8uSX0-354" value="" style="endArrow=classic;html=1;rounded=0;entryX=0.986;entryY=0.493;entryDx=0;entryDy=0;entryPerimeter=0;" edge="1" parent="1" target="EDt9xupc5EbN1uM8uSX0-345">
          <mxGeometry width="50" height="50" relative="1" as="geometry">
            <mxPoint x="309" y="224.5" as="sourcePoint" />
            <mxPoint x="349" y="225" as="targetPoint" />
          </mxGeometry>
        </mxCell>
        <mxCell id="EDt9xupc5EbN1uM8uSX0-355" value="" style="endArrow=classic;html=1;rounded=0;startArrow=none;" edge="1" parent="1" source="EDt9xupc5EbN1uM8uSX0-346">
          <mxGeometry width="50" height="50" relative="1" as="geometry">
            <mxPoint x="409" y="224.5" as="sourcePoint" />
            <mxPoint x="459" y="224.5" as="targetPoint" />
          </mxGeometry>
        </mxCell>
        <mxCell id="EDt9xupc5EbN1uM8uSX0-346" value="" style="shape=cube;whiteSpace=wrap;html=1;boundedLbl=1;backgroundOutline=1;darkOpacity=0.05;darkOpacity2=0.1;size=30;flipV=0;flipH=1;fillColor=#dae8fc;strokeColor=#6c8ebf;" vertex="1" parent="1">
          <mxGeometry x="440" y="180" width="40" height="90" as="geometry" />
        </mxCell>
        <mxCell id="EDt9xupc5EbN1uM8uSX0-357" value="" style="endArrow=classic;html=1;rounded=0;" edge="1" parent="1">
          <mxGeometry width="50" height="50" relative="1" as="geometry">
            <mxPoint x="389" y="224.5" as="sourcePoint" />
            <mxPoint x="440" y="225" as="targetPoint" />
          </mxGeometry>
        </mxCell>
        <mxCell id="EDt9xupc5EbN1uM8uSX0-358" value="" style="endArrow=classic;html=1;rounded=0;" edge="1" parent="1">
          <mxGeometry width="50" height="50" relative="1" as="geometry">
            <mxPoint x="470" y="224.5" as="sourcePoint" />
            <mxPoint x="520" y="225" as="targetPoint" />
          </mxGeometry>
        </mxCell>
        <mxCell id="EDt9xupc5EbN1uM8uSX0-359" value="1*1" style="text;html=1;strokeColor=none;fillColor=none;align=center;verticalAlign=middle;whiteSpace=wrap;rounded=0;container=0;" vertex="1" parent="1">
          <mxGeometry x="319" y="200" width="40" height="30" as="geometry" />
        </mxCell>
        <mxCell id="EDt9xupc5EbN1uM8uSX0-360" value="&lt;font color=&quot;#0a23ff&quot;&gt;relu&lt;/font&gt;" style="text;html=1;strokeColor=none;fillColor=none;align=center;verticalAlign=middle;whiteSpace=wrap;rounded=0;" vertex="1" parent="1">
          <mxGeometry x="319" y="230" width="40" height="12" as="geometry" />
        </mxCell>
        <mxCell id="EDt9xupc5EbN1uM8uSX0-361" value="3*3" style="text;html=1;strokeColor=none;fillColor=none;align=center;verticalAlign=middle;whiteSpace=wrap;rounded=0;" vertex="1" parent="1">
          <mxGeometry x="400" y="200" width="40" height="30" as="geometry" />
        </mxCell>
        <mxCell id="EDt9xupc5EbN1uM8uSX0-362" value="&lt;font color=&quot;#0a23ff&quot;&gt;relu&lt;/font&gt;" style="text;html=1;strokeColor=none;fillColor=none;align=center;verticalAlign=middle;whiteSpace=wrap;rounded=0;" vertex="1" parent="1">
          <mxGeometry x="400" y="226" width="40" height="20" as="geometry" />
        </mxCell>
        <mxCell id="EDt9xupc5EbN1uM8uSX0-363" value="1*1" style="text;html=1;strokeColor=none;fillColor=none;align=center;verticalAlign=middle;whiteSpace=wrap;rounded=0;" vertex="1" parent="1">
          <mxGeometry x="480" y="200" width="40" height="30" as="geometry" />
        </mxCell>
        <mxCell id="EDt9xupc5EbN1uM8uSX0-364" value="&lt;font color=&quot;#0a23ff&quot;&gt;relu&lt;/font&gt;" style="text;html=1;strokeColor=none;fillColor=none;align=center;verticalAlign=middle;whiteSpace=wrap;rounded=0;" vertex="1" parent="1">
          <mxGeometry x="480" y="226" width="40" height="20" as="geometry" />
        </mxCell>
        <mxCell id="EDt9xupc5EbN1uM8uSX0-367" value="" style="curved=1;endArrow=classic;html=1;rounded=0;fontColor=#0A23FF;entryX=0;entryY=0;entryDx=55;entryDy=90;entryPerimeter=0;" edge="1" parent="1" target="EDt9xupc5EbN1uM8uSX0-344">
          <mxGeometry width="50" height="50" relative="1" as="geometry">
            <mxPoint x="265" y="270" as="sourcePoint" />
            <mxPoint x="515" y="270" as="targetPoint" />
            <Array as="points">
              <mxPoint x="390" y="350" />
            </Array>
          </mxGeometry>
        </mxCell>
        <mxCell id="EDt9xupc5EbN1uM8uSX0-392" value="&lt;font color=&quot;#000000&quot; style=&quot;font-size: 26px&quot;&gt;+&lt;/font&gt;" style="text;html=1;strokeColor=none;fillColor=none;align=center;verticalAlign=middle;whiteSpace=wrap;rounded=0;fontColor=#0A23FF;" vertex="1" parent="1">
          <mxGeometry x="380" y="284" width="60" height="30" as="geometry" />
        </mxCell>
        <mxCell id="EDt9xupc5EbN1uM8uSX0-394" value="" style="group" vertex="1" connectable="0" parent="1">
          <mxGeometry x="677" y="180" width="390" height="170" as="geometry" />
        </mxCell>
        <mxCell id="EDt9xupc5EbN1uM8uSX0-349" value="" style="shape=cube;whiteSpace=wrap;html=1;boundedLbl=1;backgroundOutline=1;darkOpacity=0.05;darkOpacity2=0.1;size=30;flipV=0;flipH=1;fillColor=#dae8fc;strokeColor=#6c8ebf;" vertex="1" parent="EDt9xupc5EbN1uM8uSX0-394">
          <mxGeometry x="80" width="80" height="90" as="geometry" />
        </mxCell>
        <mxCell id="EDt9xupc5EbN1uM8uSX0-350" value="" style="shape=cube;whiteSpace=wrap;html=1;boundedLbl=1;backgroundOutline=1;darkOpacity=0.05;darkOpacity2=0.1;size=30;flipV=0;flipH=1;fillColor=#dae8fc;strokeColor=#6c8ebf;" vertex="1" parent="EDt9xupc5EbN1uM8uSX0-394">
          <mxGeometry x="230" width="80" height="90" as="geometry" />
        </mxCell>
        <mxCell id="EDt9xupc5EbN1uM8uSX0-351" value="" style="shape=cube;whiteSpace=wrap;html=1;boundedLbl=1;backgroundOutline=1;darkOpacity=0.05;darkOpacity2=0.1;size=30;flipV=0;flipH=1;fillColor=#dae8fc;strokeColor=#6c8ebf;" vertex="1" parent="EDt9xupc5EbN1uM8uSX0-394">
          <mxGeometry width="40" height="90" as="geometry" />
        </mxCell>
        <mxCell id="EDt9xupc5EbN1uM8uSX0-352" value="" style="shape=cube;whiteSpace=wrap;html=1;boundedLbl=1;backgroundOutline=1;darkOpacity=0.05;darkOpacity2=0.1;size=30;flipV=0;flipH=1;fillColor=#dae8fc;strokeColor=#6c8ebf;" vertex="1" parent="EDt9xupc5EbN1uM8uSX0-394">
          <mxGeometry x="350" width="40" height="90" as="geometry" />
        </mxCell>
        <mxCell id="EDt9xupc5EbN1uM8uSX0-368" value="" style="curved=1;endArrow=classic;html=1;rounded=0;fontColor=#0A23FF;exitX=0;exitY=0;exitDx=35;exitDy=90;exitPerimeter=0;entryX=0;entryY=0;entryDx=35;entryDy=90;entryPerimeter=0;" edge="1" parent="EDt9xupc5EbN1uM8uSX0-394" source="EDt9xupc5EbN1uM8uSX0-351" target="EDt9xupc5EbN1uM8uSX0-352">
          <mxGeometry width="50" height="50" relative="1" as="geometry">
            <mxPoint x="35" y="90" as="sourcePoint" />
            <mxPoint x="325" y="90" as="targetPoint" />
            <Array as="points">
              <mxPoint x="185" y="170" />
            </Array>
          </mxGeometry>
        </mxCell>
        <mxCell id="EDt9xupc5EbN1uM8uSX0-379" value="" style="endArrow=classic;html=1;rounded=0;entryX=1.014;entryY=0.502;entryDx=0;entryDy=0;entryPerimeter=0;" edge="1" parent="EDt9xupc5EbN1uM8uSX0-394" target="EDt9xupc5EbN1uM8uSX0-350">
          <mxGeometry width="50" height="50" relative="1" as="geometry">
            <mxPoint x="149" y="44.5" as="sourcePoint" />
            <mxPoint x="189" y="45" as="targetPoint" />
          </mxGeometry>
        </mxCell>
        <mxCell id="EDt9xupc5EbN1uM8uSX0-380" value="3*3" style="text;html=1;strokeColor=none;fillColor=none;align=center;verticalAlign=middle;whiteSpace=wrap;rounded=0;" vertex="1" parent="EDt9xupc5EbN1uM8uSX0-394">
          <mxGeometry x="173" y="20" width="40" height="30" as="geometry" />
        </mxCell>
        <mxCell id="EDt9xupc5EbN1uM8uSX0-381" value="&lt;font color=&quot;#0a23ff&quot;&gt;relu6, Dwise&lt;/font&gt;" style="text;html=1;strokeColor=none;fillColor=none;align=center;verticalAlign=middle;whiteSpace=wrap;rounded=0;" vertex="1" parent="EDt9xupc5EbN1uM8uSX0-394">
          <mxGeometry x="150" y="50" width="90" height="12" as="geometry" />
        </mxCell>
        <mxCell id="EDt9xupc5EbN1uM8uSX0-373" value="" style="endArrow=classic;html=1;rounded=0;entryX=0.993;entryY=0.493;entryDx=0;entryDy=0;entryPerimeter=0;" edge="1" parent="EDt9xupc5EbN1uM8uSX0-394" target="EDt9xupc5EbN1uM8uSX0-349">
          <mxGeometry width="50" height="50" relative="1" as="geometry">
            <mxPoint x="29" y="44.5" as="sourcePoint" />
            <mxPoint x="69" y="45" as="targetPoint" />
          </mxGeometry>
        </mxCell>
        <mxCell id="EDt9xupc5EbN1uM8uSX0-374" value="1*1" style="text;html=1;strokeColor=none;fillColor=none;align=center;verticalAlign=middle;whiteSpace=wrap;rounded=0;" vertex="1" parent="EDt9xupc5EbN1uM8uSX0-394">
          <mxGeometry x="40" y="20" width="40" height="30" as="geometry" />
        </mxCell>
        <mxCell id="EDt9xupc5EbN1uM8uSX0-383" value="" style="endArrow=classic;html=1;rounded=0;" edge="1" parent="EDt9xupc5EbN1uM8uSX0-394">
          <mxGeometry width="50" height="50" relative="1" as="geometry">
            <mxPoint x="310" y="44.5" as="sourcePoint" />
            <mxPoint x="350" y="45" as="targetPoint" />
          </mxGeometry>
        </mxCell>
        <mxCell id="EDt9xupc5EbN1uM8uSX0-384" value="1*1" style="text;html=1;strokeColor=none;fillColor=none;align=center;verticalAlign=middle;whiteSpace=wrap;rounded=0;" vertex="1" parent="EDt9xupc5EbN1uM8uSX0-394">
          <mxGeometry x="310" y="20" width="40" height="30" as="geometry" />
        </mxCell>
        <mxCell id="EDt9xupc5EbN1uM8uSX0-385" value="&lt;font color=&quot;#0a23ff&quot;&gt;Linear&lt;/font&gt;" style="text;html=1;strokeColor=none;fillColor=none;align=center;verticalAlign=middle;whiteSpace=wrap;rounded=0;" vertex="1" parent="EDt9xupc5EbN1uM8uSX0-394">
          <mxGeometry x="310" y="50" width="40" height="12" as="geometry" />
        </mxCell>
        <mxCell id="EDt9xupc5EbN1uM8uSX0-393" value="&lt;font color=&quot;#000000&quot; style=&quot;font-size: 26px&quot;&gt;+&lt;/font&gt;" style="text;html=1;strokeColor=none;fillColor=none;align=center;verticalAlign=middle;whiteSpace=wrap;rounded=0;fontColor=#0A23FF;" vertex="1" parent="EDt9xupc5EbN1uM8uSX0-394">
          <mxGeometry x="165" y="104" width="60" height="30" as="geometry" />
        </mxCell>
        <mxCell id="EDt9xupc5EbN1uM8uSX0-395" value="&lt;font color=&quot;#0a23ff&quot;&gt;relu6&lt;/font&gt;" style="text;html=1;strokeColor=none;fillColor=none;align=center;verticalAlign=middle;whiteSpace=wrap;rounded=0;" vertex="1" parent="EDt9xupc5EbN1uM8uSX0-394">
          <mxGeometry x="40" y="50" width="40" height="12" as="geometry" />
        </mxCell>
      </root>
    </mxGraphModel>
  </diagram>
</mxfile>
